<?xml version="1.0" standalone="no"?>
<!DOCTYPE svg PUBLIC "-//W3C//DTD SVG 20010904//EN"
 "http://www.w3.org/TR/2001/REC-SVG-20010904/DTD/svg10.dtd">
<svg version="1.0" xmlns="http://www.w3.org/2000/svg"
 width="260.000000pt" height="260.000000pt" viewBox="0 0 260.000000 260.000000"
 preserveAspectRatio="xMidYMid meet">
<metadata>
Created by potrace 1.14, written by Peter Selinger 2001-2017
</metadata>
<g transform="translate(0.000000,260.000000) scale(0.100000,-0.100000)"
fill="#000000" stroke="none">
<path d="M1168 2455 c-2 -1 -28 -6 -58 -9 -191 -23 -428 -122 -595 -248 -77
-59 -211 -204 -266 -288 -134 -206 -191 -407 -184 -650 15 -513 385 -950 921
-1085 213 -55 462 -51 669 9 66 19 118 37 144 50 17 9 31 14 31 12 0 -9 195
105 250 147 72 54 185 168 238 239 58 79 138 233 167 320 23 71 27 88 43 173
4 22 7 105 7 185 0 118 -4 162 -23 238 -101 405 -393 711 -806 847 -101 33
-129 40 -241 55 -55 7 -290 11 -297 5z"/>
</g>
</svg>
