<svg width="20" height="22" viewBox="0 0 20 22" fill="none" xmlns="http://www.w3.org/2000/svg">
<path d="M19.5714 7.70952C18.2211 2.62346 13.0225 -0.41467 7.91395 0.913107C2.82789 2.24088 -0.210247 7.46197 1.14003 12.548C1.77017 14.956 3.27798 16.9139 5.23589 18.1517L2.71536 22L12.775 19.3444C17.8835 18.0167 20.9217 12.7956 19.5714 7.70952ZM11.1996 14.9335H9.39925V13.4032H11.1996V14.9335ZM11.2221 11.3778V12.2555H9.42176V9.71244H10.3219C11.0646 9.71244 11.6722 9.10481 11.6722 8.36216C11.6722 7.6195 11.0646 7.01188 10.3219 7.01188C9.57929 7.01188 8.97167 7.6195 8.97167 8.36216H7.17129C7.17129 6.6293 8.58909 5.2115 10.3219 5.2115C12.0548 5.2115 13.4726 6.6293 13.4726 8.36216C13.4726 9.77995 12.5274 10.9952 11.2221 11.3778Z" fill="#2CC161"/>
</svg>
