<svg width="17" height="17" viewBox="0 0 17 17" fill="none" xmlns="http://www.w3.org/2000/svg">
<path fill-rule="evenodd" clip-rule="evenodd" d="M4.6 3.80078C3.4402 3.80078 2.5 4.74098 2.5 5.90078V12.4008C2.5 13.5606 3.4402 14.5008 4.6 14.5008H12.4C13.5598 14.5008 14.5 13.5606 14.5 12.4008V5.90078C14.5 4.74098 13.5598 3.80078 12.4 3.80078H4.6ZM1.5 5.90078C1.5 4.1887 2.88792 2.80078 4.6 2.80078H12.4C14.1121 2.80078 15.5 4.1887 15.5 5.90078V12.4008C15.5 14.1129 14.1121 15.5008 12.4 15.5008H4.6C2.88792 15.5008 1.5 14.1129 1.5 12.4008V5.90078Z" fill="white"/>
<path fill-rule="evenodd" clip-rule="evenodd" d="M5.90039 1.5C6.17653 1.5 6.40039 1.72386 6.40039 2V4.6C6.40039 4.87614 6.17653 5.1 5.90039 5.1C5.62425 5.1 5.40039 4.87614 5.40039 4.6V2C5.40039 1.72386 5.62425 1.5 5.90039 1.5Z" fill="white"/>
<path fill-rule="evenodd" clip-rule="evenodd" d="M11.0996 1.5C11.3758 1.5 11.5996 1.72386 11.5996 2V4.6C11.5996 4.87614 11.3758 5.1 11.0996 5.1C10.8235 5.1 10.5996 4.87614 10.5996 4.6V2C10.5996 1.72386 10.8235 1.5 11.0996 1.5Z" fill="white"/>
<path fill-rule="evenodd" clip-rule="evenodd" d="M1.5 7.19922C1.5 6.92308 1.72386 6.69922 2 6.69922H15C15.2761 6.69922 15.5 6.92308 15.5 7.19922C15.5 7.47536 15.2761 7.69922 15 7.69922H2C1.72386 7.69922 1.5 7.47536 1.5 7.19922Z" fill="white"/>
</svg>
