<svg width="13" height="12" viewBox="0 0 13 12" fill="none" xmlns="http://www.w3.org/2000/svg">
<path d="M6.5 8.98941C7.579 8.98941 8.45 8.06281 8.45 6.91493C8.45 6.14046 8.0535 5.46279 7.475 5.11013L1.1635 1.22394L4.758 7.84844C5.083 8.52611 5.7395 8.98941 6.5 8.98941ZM6.5 0C5.3235 0 4.225 0.345746 3.2695 0.912771L4.6345 1.74948C5.2 1.51437 5.85 1.38299 6.5 1.38299C9.373 1.38299 11.7 3.85853 11.7 6.91493C11.7 8.44313 11.1215 9.82611 10.179 10.8219H10.1725C10.1122 10.8858 10.0644 10.9618 10.0318 11.0455C9.9992 11.1291 9.98241 11.2188 9.98241 11.3094C9.98241 11.3999 9.9992 11.4896 10.0318 11.5733C10.0644 11.6569 10.1122 11.7329 10.1725 11.7969C10.426 12.0665 10.842 12.0665 11.0955 11.8038C11.7 11.1625 12.1795 10.4005 12.5063 9.56152C12.8331 8.72253 13.0009 7.82311 13 6.91493C13 3.11172 10.075 0 6.5 0ZM0 6.91493C0 8.82345 0.728 10.5522 1.9045 11.8038C2.158 12.0665 2.5675 12.0665 2.821 11.7969C2.88126 11.7329 2.92906 11.6569 2.96168 11.5733C2.9943 11.4896 3.01109 11.3999 3.01109 11.3094C3.01109 11.2188 2.9943 11.1291 2.96168 11.0455C2.92906 10.9618 2.88126 10.8858 2.821 10.8219C2.33759 10.3097 1.9543 9.70077 1.69325 9.0302C1.43219 8.35964 1.29854 7.64072 1.3 6.91493C1.3 6.22343 1.4235 5.53194 1.651 4.9096L0.8645 3.45746C0.325 4.4947 0 5.65641 0 6.91493Z" fill="#00973C"/>
</svg>
