<svg width="14" height="14" viewBox="0 0 14 14" fill="none" xmlns="http://www.w3.org/2000/svg">
<path d="M0.5 5.60547H13.1486V12.6325C13.1486 13.2146 12.6767 13.6866 12.0946 13.6866H1.55405C0.971916 13.6866 0.5 13.2146 0.5 12.6325V5.60547Z" fill="#FEB330"/>
<path fill-rule="evenodd" clip-rule="evenodd" d="M8.58057 2.44531H5.06688V2.97054C5.06688 3.6497 4.51631 4.20027 3.83715 4.20027C3.15799 4.20027 2.60742 3.6497 2.60742 2.97054V2.44531H1.55405C0.971916 2.44531 0.5 2.91723 0.5 3.49937V4.90477H13.1486V3.49937C13.1486 2.91723 12.6767 2.44531 12.0946 2.44531H11.04V2.97054C11.04 3.6497 10.4895 4.20027 9.8103 4.20027C9.13113 4.20027 8.58057 3.6497 8.58057 2.97054V2.44531Z" fill="#FEB330"/>
<rect x="9.2832" y="0.6875" width="1.05405" height="2.81081" rx="0.527027" fill="#FEB330"/>
<rect x="3.31055" y="0.6875" width="1.05405" height="2.81081" rx="0.527027" fill="#FEB330"/>
</svg>
